<svg xmlns="http://www.w3.org/2000/svg" width="500" height="312" style="overflow: visible;" viewBox="100 150 320 202" data-svgdocument="" id="_Vu_n21r4i8YQsOUFY7Pak" class="fl-svgdocument" x="0" y="0" overflow="hidden"><path id="_aNvBQAGdBTcRelv892A_s" d="m 12 965.36303 c -2.7526942 0 -5 2.24729 -5 4.99994 l 0 49.99943 c 0 2.7527 2.2473058 4.9999 5 4.9999 l 30 0 0 11.9999 -5 0 c -0.52302 0 -0.998894 0.4764 -0.998894 1 0 0.5236 0.475874 1 0.998894 1 8.65625 0 17.3125 0 25.96875 0 0.578108 0.024 1.104502 -0.5504 1.03125 -1.125 -0.06117 -0.4918 -0.536655 -0.8952 -1.03125 -0.875 l -4.96875 0 0 -11.9999 30 0 c 2.752694 0 5 -2.2472 5 -4.9999 l 0 -49.99943 c 0 -2.75265 -2.247306 -4.99994 -5 -4.99994 z m 0 1.99997 76 0 c 1.679306 0 3 1.32074 3 2.99997 l 0 49.99943 c 0 1.6793 -1.320694 3 -3 3 l -76 0 c -1.679306 0 -3 -1.3207 -3 -3 l 0 -49.99943 c 0 -1.67923 1.320694 -2.99997 3 -2.99997 z m 43.875 11.96862 c -0.363198 0.0475 -0.689655 0.31117 -0.8125 0.65624 l -12 29.99964 c -0.188184 0.4909 0.08722 1.1087 0.578096 1.2969 0.490874 0.1882 1.10872 -0.087 1.296904 -0.5781 l 12 -29.9997 c 0.26994 -0.64786 -0.367491 -1.47276 -1.0625 -1.37498 z m -19.90625 4.99994 c -0.165992 0.012 -0.328759 0.0663 -0.46875 0.15625 l -18 9.99988 c -0.621399 0.34395 -0.621399 1.40603 0 1.74998 l 18 9.99993 c 0.458154 0.2618 1.11321 0.083 1.37501 -0.375 0.261799 -0.4582 0.08314 -1.1132 -0.37501 -1.375 L 20.0625 995.36268 36.5 986.23779 c 0.434082 -0.19274 0.685028 -0.725 0.557524 -1.18251 -0.127505 -0.45751 -0.617571 -0.78327 -1.088774 -0.72372 z m 27.9375 0 c -0.448043 0.007 -0.868091 0.35324 -0.961492 0.7915 -0.0934 0.43826 0.149169 0.92525 0.555242 1.11473 l 16.4375 9.12489 -16.4375 9.12492 c -0.458154 0.2618 -0.636809 0.9168 -0.37501 1.375 0.2618 0.4581 0.916856 0.6368 1.37501 0.375 l 18 -9.99993 c 0.621399 -0.34395 0.621399 -1.40603 0 -1.74998 l -18 -9.99988 c -0.175203 -0.11213 -0.386047 -0.16761 -0.59375 -0.15625 z M 44 1025.3623 l 12 0 0 11.9999 -12 0 z" fill="#292f38" fill-opacity="1" stroke="none" marker="none" visibility="visible" display="inline" overflow="visible" transform="matrix(1.1824133218645485, 0, 0, 1.1824133218645485, 199.24760055728336, -956.7970405203712)" direction="ltr" baseline-shift="baseline" color="rgb(0, 0, 0)" stroke-width="1" data-uid="o_f39d724df_4" style="text-indent: 0px; text-transform: none;"></path><path text="finse" text-anchor="middle" font-size="100" letter-spacing="0" side="left" offset="0.5" dx="0" dy="0" space="preserve" href="" font-family="Flamenco" font-scale="contain" transform="matrix(0.5611763211254511, 0, 0, 0.5611763211254511, 255.85970591971864, 327.32444768311586)" x="0" y="0" fill="#292f38" data-fl-textpath="" id="_fOU6kpe3PPhIlda_Y4qMd" data-uid="o_f39d724df_5" d="M-94.15 22.6L-94.15 22.6Q-95.25000000000001 22.9 -96.05000000000001 22.9Q-96.85000000000001 22.9-97.50000000000001 22.3Q-98.15 21.7-98.15 20.7L-98.15 20.7Q-98.15 18.9 -95.85000000000001 18.3L-95.85000000000001 18.3Q-90.65 16.7 -88.65 12.35Q-86.65 8 -86.65 0.6L-86.65 0.6L-86.65-32.7L-92.75000000000001-32.7Q-93.75000000000001-32.7 -94.4-33.35Q-95.05000000000001-34 -95.05000000000001-35Q-95.05000000000001-36 -94.4-36.7Q-93.75000000000001-37.4 -92.75000000000001-37.4L-92.75000000000001-37.4L-86.65-37.4L-86.65-60Q-86.65-68.7 -83.00000000000001-72.35Q-79.35000000000001-76 -71.75000000000001-76Q-64.15-76 -58.750000000000014-72.7L-58.750000000000014-72.7Q-57.55000000000001-72 -57.55000000000001-70.9L-57.55000000000001-70.9L-57.55000000000001-62.3Q-57.55000000000001-61.3 -58.35000000000001-60.65Q-59.15000000000001-60 -60.250000000000014-60Q-61.35000000000001-60 -62.15000000000001-60.65Q-62.95000000000001-61.3 -62.95000000000001-62.3L-62.95000000000001-62.3L-62.95000000000001-69.8Q-66.45000000000002-71.4 -71.65-71.4Q-76.85000000000001-71.4 -79.10000000000001-68.75Q-81.35000000000001-66.1 -81.35000000000001-59.9L-81.35000000000001-59.9L-81.35000000000001-37.4L-63.95000000000001-37.4Q-62.95000000000001-37.4 -62.30000000000001-36.7Q-61.65000000000001-36 -61.65000000000001-35Q-61.65000000000001-34 -62.30000000000001-33.35Q-62.95000000000001-32.7 -63.95000000000001-32.7L-63.95000000000001-32.7L-81.35000000000001-32.7L-81.35000000000001 0.6Q-81.35000000000001 9.5 -84.05000000000001 14.8Q-86.75000000000001 20.1 -94.15 22.6ZM-45.75000000000001-35.1L-45.75000000000001-1.3Q-45.75000000000001-0.3 -46.550000000000004 0.35Q-47.35000000000001 1 -48.45 1Q-49.550000000000004 1 -50.35000000000001 0.35Q-51.150000000000006-0.3 -51.150000000000006-1.3L-51.150000000000006-1.3L-51.150000000000006-32.7L-57.75000000000001-32.7Q-58.75000000000001-32.7 -59.400000000000006-33.35Q-60.050000000000004-34 -60.050000000000004-35Q-60.050000000000004-36 -59.400000000000006-36.7Q-58.75000000000001-37.4 -57.75000000000001-37.4L-57.75000000000001-37.4L-48.050000000000004-37.4Q-45.75000000000001-37.4 -45.75000000000001-35.1L-45.75000000000001-35.1ZM-51.35000000000001-52.4Q-52.25000000000001-53.4 -52.25000000000001-54.8Q-52.25000000000001-56.2 -51.35000000000001-57.2Q-50.45-58.2 -48.85000000000001-58.2Q-47.25000000000001-58.2 -46.300000000000004-57.2Q-45.35000000000001-56.2 -45.35000000000001-54.8Q-45.35000000000001-53.4 -46.300000000000004-52.4Q-47.25000000000001-51.4 -48.85000000000001-51.4Q-50.45-51.4 -51.35000000000001-52.4ZM-31.45000000000001-32.7L-31.45000000000001-32.7L-36.15000000000001-32.7Q-37.15000000000001-32.7 -37.80000000000001-33.35Q-38.45000000000001-34 -38.45000000000001-35Q-38.45000000000001-36 -37.80000000000001-36.7Q-37.15000000000001-37.4 -36.15000000000001-37.4L-36.15000000000001-37.4L-30.75000000000001-37.4Q-24.55000000000001-37.4 -24.55000000000001-30.6L-24.55000000000001-30.6Q-18.55000000000001-38.4 -9.45000000000001-38.4L-9.45000000000001-38.4Q-4.050000000000011-38.4 -0.6000000000000085-35.65Q 2.849999999999987-32.9  2.849999999999987-27.6L 2.849999999999987-27.6L 2.849999999999987-6.6Q 2.849999999999987-4.7  5.54999999999999-4.7L 5.54999999999999-4.7L 9.449999999999989-4.7Q 10.449999999999989-4.7  11.099999999999987-4Q 11.749999999999986-3.3  11.749999999999986-2.3Q 11.749999999999986-1.3  11.099999999999987-0.65Q 10.449999999999989 0  9.449999999999989 0L 9.449999999999989 0L 5.54999999999999 0Q-2.5500000000000114 0 -2.5500000000000114-6.5L-2.5500000000000114-6.5L-2.5500000000000114-27.6Q-2.5500000000000114-30.6 -4.400000000000013-32.2Q-6.250000000000014-33.8 -9.550000000000011-33.8L-9.550000000000011-33.8Q-18.75000000000001-33.8 -24.150000000000013-24.2L-24.150000000000013-24.2L-24.150000000000013-1.3Q-24.150000000000013-0.3 -24.95000000000001 0.35Q-25.75000000000001 1 -26.850000000000012 1Q-27.95000000000001 1 -28.75000000000001 0.35Q-29.55000000000001-0.3 -29.55000000000001-1.3L-29.55000000000001-1.3L-29.55000000000001-30.8Q-29.55000000000001-32.7 -31.45000000000001-32.7ZM 16.449999999999996-3.9L 16.449999999999996-3.9L 16.449999999999996-12Q 16.449999999999996-13  17.249999999999993-13.65Q 18.049999999999994-14.3  19.149999999999995-14.3Q 20.249999999999993-14.3  21.049999999999994-13.65Q 21.849999999999994-13  21.849999999999994-12L 21.849999999999994-12L 21.849999999999994-5.2Q 26.649999999999995-3.6  31.849999999999994-3.6L 31.849999999999994-3.6Q 43.24999999999999-3.6  43.24999999999999-10L 43.24999999999999-10Q 43.24999999999999-14.8  32.55-17.1L 32.55-17.1Q 32.05-17.2  30.349999999999994-17.6Q 28.649999999999995-18  27.549999999999994-18.25Q 26.449999999999996-18.5  23.899999999999995-19.45Q 21.349999999999994-20.4  20.249999999999993-21.4L 20.249999999999993-21.4Q 17.249999999999993-24.1  17.249999999999993-28.05Q 17.249999999999993-32  19.899999999999995-34.45Q 22.549999999999994-36.9  25.749999999999993-37.65Q 28.949999999999996-38.4  32.74999999999999-38.4L 32.74999999999999-38.4Q 39.74999999999999-38.4  45.64999999999999-35.7L 45.64999999999999-35.7Q 47.449999999999996-34.9  47.449999999999996-33.5L 47.449999999999996-33.5L 47.449999999999996-25.8Q 47.449999999999996-24.8  46.64999999999999-24.15Q 45.849999999999994-23.5  44.74999999999999-23.5Q 43.64999999999999-23.5  42.849999999999994-24.15Q 42.05-24.8  42.05-25.8L 42.05-25.8L 42.05-32.2Q 38.05-33.8  32.74999999999999-33.8L 32.74999999999999-33.8Q 22.549999999999994-33.8  22.549999999999994-28L 22.549999999999994-28Q 22.549999999999994-25.9  23.899999999999995-25.1Q 25.249999999999993-24.3  25.899999999999995-23.9Q 26.549999999999994-23.5  28.249999999999993-23.1L 28.249999999999993-23.1Q 30.649999999999995-22.5  33.14999999999999-22Q 35.64999999999999-21.5  37.24999999999999-21.1Q 38.849999999999994-20.7  41.3-19.75Q 43.74999999999999-18.8  45.14999999999999-17.6L 45.14999999999999-17.6Q 48.64999999999999-14.8  48.64999999999999-10.3Q 48.64999999999999-5.8  45.699999999999996-3.15Q 42.74999999999999-0.5  39.3 0.25Q 35.849999999999994 1  31.849999999999994 1L 31.849999999999994 1Q 23.949999999999996 1  18.249999999999993-1.6L 18.249999999999993-1.6Q 16.449999999999996-2.4  16.449999999999996-3.9ZM 87.65-22Q 87.35-27.4  84.5-30.6Q 81.65-33.8  76.3-33.8Q 70.94999999999999-33.8  67.35-30.55Q 63.75-27.3  62.849999999999994-22L 62.849999999999994-22L 87.65-22ZM 87.85-9.6L 87.85-9.6Q 88.55-10.8  89.44999999999999-10.8Q 90.35-10.8  91.25-10.35Q 92.15-9.9  92.5-8.95Q 92.85-8  92.35-7.2L 92.35-7.2Q 87.25 1  76.15 1L 76.15 1Q 67.35 1  62.3-4.65Q 57.25-10.3  57.25-18.9Q 57.25-27.5  62.449999999999996-32.95Q 67.64999999999999-38.4  76.15-38.4Q 84.65-38.4  88.8-33.3Q 92.94999999999999-28.2  92.94999999999999-19.7L 92.94999999999999-19.7Q 92.94999999999999-17.4  90.35-17.4L 90.35-17.4L 62.65-17.3Q 63.05-11.1  66.7-7.35Q 70.35-3.6  76.15-3.6L 76.15-3.6Q 83.94999999999999-3.6  87.85-9.6Z"></path></svg>